<mxfile>
    <diagram id="P1pM9tXk0kd233daMY16" name="Page-1">
        <mxGraphModel dx="1480" dy="1029" grid="1" gridSize="10" guides="1" tooltips="1" connect="1" arrows="1" fold="1" page="1" pageScale="1" pageWidth="1600" pageHeight="1200" math="0" shadow="0">
            <root>
                <mxCell id="0"/>
                <mxCell id="1" parent="0"/>
                <mxCell id="14" value="AWS Cloud" style="points=[[0,0],[0.25,0],[0.5,0],[0.75,0],[1,0],[1,0.25],[1,0.5],[1,0.75],[1,1],[0.75,1],[0.5,1],[0.25,1],[0,1],[0,0.75],[0,0.5],[0,0.25]];outlineConnect=0;gradientColor=none;html=1;whiteSpace=wrap;fontSize=12;fontStyle=0;shape=mxgraph.aws4.group;grIcon=mxgraph.aws4.group_aws_cloud;strokeColor=#232F3E;fillColor=none;verticalAlign=top;align=left;spacingLeft=30;fontColor=#232F3E;dashed=0;" parent="1" vertex="1">
                    <mxGeometry x="250" y="20" width="760" height="520" as="geometry"/>
                </mxCell>
                <mxCell id="2" value="ap-northeast-1" style="points=[[0,0],[0.25,0],[0.5,0],[0.75,0],[1,0],[1,0.25],[1,0.5],[1,0.75],[1,1],[0.75,1],[0.5,1],[0.25,1],[0,1],[0,0.75],[0,0.5],[0,0.25]];outlineConnect=0;gradientColor=none;html=1;whiteSpace=wrap;fontSize=12;fontStyle=0;shape=mxgraph.aws4.group;grIcon=mxgraph.aws4.group_region;strokeColor=#147EBA;fillColor=none;verticalAlign=top;align=left;spacingLeft=30;fontColor=#147EBA;dashed=1;" parent="1" vertex="1">
                    <mxGeometry x="280" y="310" width="700" height="200" as="geometry"/>
                </mxCell>
                <mxCell id="3" value="&lt;font color=&quot;#000000&quot;&gt;CloudFront&lt;/font&gt;" style="points=[[0,0,0],[0.25,0,0],[0.5,0,0],[0.75,0,0],[1,0,0],[0,1,0],[0.25,1,0],[0.5,1,0],[0.75,1,0],[1,1,0],[0,0.25,0],[0,0.5,0],[0,0.75,0],[1,0.25,0],[1,0.5,0],[1,0.75,0]];outlineConnect=0;fontColor=#232F3E;gradientColor=#945DF2;gradientDirection=north;fillColor=#5A30B5;strokeColor=#ffffff;dashed=0;verticalLabelPosition=bottom;verticalAlign=top;align=center;html=1;fontSize=12;fontStyle=0;aspect=fixed;shape=mxgraph.aws4.resourceIcon;resIcon=mxgraph.aws4.cloudfront;" parent="1" vertex="1">
                    <mxGeometry x="450" y="365" width="78" height="78" as="geometry"/>
                </mxCell>
                <mxCell id="4" value="Hosting Bucket" style="outlineConnect=0;gradientColor=none;fillColor=#277116;strokeColor=none;dashed=0;verticalLabelPosition=bottom;verticalAlign=top;align=center;html=1;fontSize=12;fontStyle=0;aspect=fixed;pointerEvents=1;shape=mxgraph.aws4.bucket_with_objects;fontColor=#000000;" parent="1" vertex="1">
                    <mxGeometry x="790" y="365" width="75" height="78" as="geometry"/>
                </mxCell>
                <mxCell id="6" value="" style="edgeStyle=orthogonalEdgeStyle;html=1;endArrow=block;elbow=vertical;startArrow=none;endFill=1;strokeColor=#545B64;rounded=0;fontColor=#000000;exitX=1;exitY=0.5;exitDx=0;exitDy=0;exitPerimeter=0;" parent="1" source="3" target="4" edge="1">
                    <mxGeometry width="100" relative="1" as="geometry">
                        <mxPoint x="520" y="440" as="sourcePoint"/>
                        <mxPoint x="620" y="440" as="targetPoint"/>
                        <Array as="points">
                            <mxPoint x="570" y="405"/>
                            <mxPoint x="570" y="405"/>
                        </Array>
                    </mxGeometry>
                </mxCell>
                <mxCell id="7" value="Origin Access Identity" style="edgeLabel;html=1;align=center;verticalAlign=middle;resizable=0;points=[];fontColor=#000000;labelBackgroundColor=none;" parent="6" vertex="1" connectable="0">
                    <mxGeometry x="-0.2519" y="1" relative="1" as="geometry">
                        <mxPoint x="34" y="-14" as="offset"/>
                    </mxGeometry>
                </mxCell>
                <mxCell id="8" value="us-east-1" style="points=[[0,0],[0.25,0],[0.5,0],[0.75,0],[1,0],[1,0.25],[1,0.5],[1,0.75],[1,1],[0.75,1],[0.5,1],[0.25,1],[0,1],[0,0.75],[0,0.5],[0,0.25]];outlineConnect=0;gradientColor=none;html=1;whiteSpace=wrap;fontSize=12;fontStyle=0;shape=mxgraph.aws4.group;grIcon=mxgraph.aws4.group_region;strokeColor=#147EBA;fillColor=none;verticalAlign=top;align=left;spacingLeft=30;fontColor=#147EBA;dashed=1;" parent="1" vertex="1">
                    <mxGeometry x="280" y="60" width="700" height="200" as="geometry"/>
                </mxCell>
                <mxCell id="9" value="Client" style="outlineConnect=0;gradientColor=none;fillColor=#232F3E;strokeColor=none;dashed=0;verticalLabelPosition=bottom;verticalAlign=top;align=center;html=1;fontSize=12;fontStyle=0;aspect=fixed;pointerEvents=1;shape=mxgraph.aws4.client;fontColor=#000000;" parent="1" vertex="1">
                    <mxGeometry x="70" y="366" width="78" height="76" as="geometry"/>
                </mxCell>
                <mxCell id="10" value="" style="edgeStyle=orthogonalEdgeStyle;html=1;endArrow=block;elbow=vertical;startArrow=none;endFill=1;strokeColor=#545B64;rounded=0;fontColor=#000000;" parent="1" source="9" target="3" edge="1">
                    <mxGeometry width="100" relative="1" as="geometry">
                        <mxPoint x="520" y="440" as="sourcePoint"/>
                        <mxPoint x="620" y="440" as="targetPoint"/>
                        <Array as="points">
                            <mxPoint x="210" y="405"/>
                            <mxPoint x="210" y="405"/>
                        </Array>
                    </mxGeometry>
                </mxCell>
                <mxCell id="11" value="&lt;font color=&quot;#000000&quot;&gt;WAFv2 Web ACL&lt;/font&gt;" style="points=[[0,0,0],[0.25,0,0],[0.5,0,0],[0.75,0,0],[1,0,0],[0,1,0],[0.25,1,0],[0.5,1,0],[0.75,1,0],[1,1,0],[0,0.25,0],[0,0.5,0],[0,0.75,0],[1,0.25,0],[1,0.5,0],[1,0.75,0]];outlineConnect=0;fontColor=#232F3E;gradientColor=#F54749;gradientDirection=north;fillColor=#C7131F;strokeColor=#ffffff;dashed=0;verticalLabelPosition=bottom;verticalAlign=top;align=center;html=1;fontSize=12;fontStyle=0;aspect=fixed;shape=mxgraph.aws4.resourceIcon;resIcon=mxgraph.aws4.waf;" parent="1" vertex="1">
                    <mxGeometry x="450" y="100" width="78" height="78" as="geometry"/>
                </mxCell>
                <mxCell id="12" value="" style="edgeStyle=orthogonalEdgeStyle;html=1;endArrow=block;elbow=vertical;startArrow=none;endFill=1;strokeColor=#545B64;rounded=0;fontColor=#000000;" parent="1" target="3" edge="1">
                    <mxGeometry width="100" relative="1" as="geometry">
                        <mxPoint x="489" y="210" as="sourcePoint"/>
                        <mxPoint x="620" y="420" as="targetPoint"/>
                    </mxGeometry>
                </mxCell>
                <mxCell id="13" value="IP Check" style="edgeLabel;html=1;align=center;verticalAlign=middle;resizable=0;points=[];fontColor=#000000;labelBackgroundColor=none;" parent="1" vertex="1" connectable="0">
                    <mxGeometry x="520" y="290" as="geometry"/>
                </mxCell>
            </root>
        </mxGraphModel>
    </diagram>
</mxfile>